<?xml version="1.0" encoding="UTF-8" standalone="no"?>
<!-- Generator: Adobe Illustrator 16.0.0, SVG Export Plug-In . SVG Version: 6.00 Build 0)  -->

<svg
   xmlns:dc="http://purl.org/dc/elements/1.1/"
   xmlns:cc="http://creativecommons.org/ns#"
   xmlns:rdf="http://www.w3.org/1999/02/22-rdf-syntax-ns#"
   xmlns:svg="http://www.w3.org/2000/svg"
   xmlns="http://www.w3.org/2000/svg"
   xmlns:sodipodi="http://sodipodi.sourceforge.net/DTD/sodipodi-0.dtd"
   xmlns:inkscape="http://www.inkscape.org/namespaces/inkscape"
   version="1.1"
   id="Capa_1"
   x="0px"
   y="0px"
   width="607.82074"
   height="607.82074"
   viewBox="0 0 607.82076 607.82072"
   xml:space="preserve"
   inkscape:version="0.91 r13725"
   sodipodi:docname="bitbucket.svg"><metadata
     id="metadata4206"><rdf:RDF><cc:Work
         rdf:about=""><dc:format>image/svg+xml</dc:format><dc:type
           rdf:resource="http://purl.org/dc/dcmitype/StillImage" /><dc:title></dc:title></cc:Work></rdf:RDF></metadata><defs
     id="defs4204" /><sodipodi:namedview
     pagecolor="#ffffff"
     bordercolor="#666666"
     borderopacity="1"
     objecttolerance="10"
     gridtolerance="10"
     guidetolerance="10"
     inkscape:pageopacity="0"
     inkscape:pageshadow="2"
     inkscape:window-width="1920"
     inkscape:window-height="1039"
     id="namedview4202"
     showgrid="false"
     fit-margin-top="0"
     fit-margin-left="0"
     fit-margin-right="0"
     fit-margin-bottom="0"
     inkscape:zoom="1.2316035"
     inkscape:cx="136.47125"
     inkscape:cy="311.01485"
     inkscape:window-x="0"
     inkscape:window-y="0"
     inkscape:window-maximized="1"
     inkscape:current-layer="layer1" /><g
     inkscape:groupmode="layer"
     id="layer1"
     inkscape:label="fond"
     transform="translate(27.239014,48.891754)"><circle
       style="fill:#000000;fill-opacity:1"
       id="path4211"
       cx="276.67136"
       cy="255.01862"
       r="303.91037" /></g><g
     id="g4192"
     style="fill:#ffffff"
     transform="matrix(0.85966839,0,0,0.85966839,69.55804,74.830389)"><g
       id="g4194"
       style="fill:#ffffff"><path
         d="m 445.157,385.361 c -50.306,33.237 -107.283,49.854 -170.943,49.854 -63.661,0 -120.534,-16.616 -170.607,-49.854 l -6.065,3.023 -2.02,5.397 c 7.185,44.015 13.586,76.8 19.198,98.354 4.492,7.858 10.331,14.762 17.516,20.71 7.185,5.949 15.379,10.845 24.59,14.657 9.204,3.813 17.797,6.843 25.765,9.095 7.968,2.252 17.124,4.266 27.454,6.064 23.127,3.813 45.753,5.894 67.871,6.236 22.118,0.331 44.799,-2.142 68.042,-7.423 23.244,-5.276 44.518,-13.306 63.832,-24.076 8.085,-4.499 14.597,-10.845 19.535,-19.027 4.938,-8.213 8.134,-16.053 9.596,-23.58 1.457,-7.528 3.036,-16.946 4.719,-28.306 1.684,-11.328 3.421,-19.92 5.221,-25.765 0,-2.026 0.894,-6.169 2.692,-12.461 1.793,-6.291 2.356,-11.34 1.684,-15.159 -0.669,-3.81 -3.367,-6.399 -8.08,-7.739 z"
         id="path4196"
         style="fill:#ffffff"
         inkscape:connector-curvature="0" /><path
         d="m 52.571,181.057 c 2.356,13.813 5.502,31.946 9.431,54.407 3.923,22.46 6.904,39.303 8.923,50.526 0.447,2.014 1.065,5.961 1.854,11.787 0.784,5.845 1.457,10.275 2.02,13.306 0.557,3.029 1.566,6.854 3.035,11.444 1.457,4.62 3.366,8.537 5.722,11.787 2.356,3.262 5.221,6.236 8.593,8.935 32.785,25.159 77.02,40.747 132.712,46.812 80.386,8.537 148.881,-1.341 205.467,-29.646 7.411,-3.801 13.524,-7.289 18.359,-10.435 4.829,-3.146 9.713,-7.632 14.651,-13.471 4.939,-5.826 7.969,-12.13 9.095,-18.867 19.082,-109.579 31.548,-183.117 37.387,-220.626 1.347,-5.159 1.965,-11.224 1.854,-18.183 -0.116,-6.958 -1.971,-12.681 -5.557,-17.185 C 492.64,44.579 468.503,30.901 433.699,20.558 367.01,1.019 291.104,-4.587 206,3.718 163.778,7.757 128.637,14.954 100.571,25.273 c -6.738,2.473 -12.124,4.553 -16.169,6.236 -4.039,1.683 -9.21,4.21 -15.496,7.577 -6.292,3.366 -11.341,6.738 -15.16,10.104 -3.819,3.366 -7.356,7.577 -10.612,12.632 -3.256,5.055 -5.22,10.502 -5.894,16.34 2.02,16.157 4.492,33.905 7.411,53.207 2.92,19.32 5.564,35.887 7.92,49.688 z m 279.746,130.197 c -13.697,17.068 -30.766,26.5 -51.2,28.287 -20.667,1.799 -39.242,-4.486 -55.747,-18.856 -16.506,-14.369 -25.208,-31.774 -26.108,-52.209 -0.673,-15.502 3.201,-30.037 11.622,-43.629 8.421,-13.581 19.707,-23.513 33.85,-29.805 22.008,-9.884 44.125,-8.421 66.359,4.382 22.234,12.791 34.915,31.212 38.061,55.233 2.471,20.666 -3.141,39.534 -16.837,56.597 z M 135.938,57.617 c 7.185,-3.819 13.354,-6.292 18.525,-7.405 5.165,-1.12 12.57,-2.46 22.228,-4.039 61.751,-10.998 125.307,-11.224 190.65,-0.686 10.997,1.805 18.972,3.213 23.917,4.21 4.938,1.016 11.45,3.488 19.535,7.424 8.084,3.935 14.369,8.923 18.861,14.988 -6.512,6.512 -14.933,11.738 -25.263,15.655 -10.331,3.935 -18.471,6.353 -24.419,7.252 -5.955,0.894 -15.998,2.252 -30.147,4.039 -49.406,6.292 -99.707,6.169 -150.907,-0.343 -13.477,-1.567 -23.299,-2.858 -29.474,-3.868 -6.181,-1.016 -14.431,-3.477 -24.755,-7.405 -10.331,-3.935 -18.862,-9.039 -25.594,-15.331 4.046,-5.837 9.652,-10.678 16.843,-14.491 z"
         id="path4198"
         style="fill:#ffffff"
         inkscape:connector-curvature="0" /><path
         d="m 302.506,239.007 c -6.176,-6.634 -13.36,-10.618 -21.555,-11.958 -8.201,-1.353 -16.334,0 -24.419,4.039 -8.538,3.813 -14.376,10.343 -17.516,19.542 -3.146,9.21 -3.091,18.421 0.171,27.62 3.25,9.21 9.266,15.722 18.023,19.541 11.897,7.185 24.418,6.512 37.558,-2.025 13.134,-8.525 18.807,-19.866 17.008,-34.016 -0.011,-8.532 -3.095,-16.115 -9.27,-22.743 z"
         id="path4200"
         style="fill:#ffffff"
         inkscape:connector-curvature="0" /></g></g></svg>