<?xml version="1.0" encoding="UTF-8" standalone="no"?>
<svg
   xmlns:dc="http://purl.org/dc/elements/1.1/"
   xmlns:cc="http://creativecommons.org/ns#"
   xmlns:rdf="http://www.w3.org/1999/02/22-rdf-syntax-ns#"
   xmlns:svg="http://www.w3.org/2000/svg"
   xmlns="http://www.w3.org/2000/svg"
   xmlns:sodipodi="http://sodipodi.sourceforge.net/DTD/sodipodi-0.dtd"
   xmlns:inkscape="http://www.inkscape.org/namespaces/inkscape"
   width="47.062042"
   height="47"
   viewBox="0 0 47.062042 47"
   id="svg4305"
   version="1.1"
   inkscape:version="0.91 r13725"
   sodipodi:docname="fcc.svg">
  <metadata
     id="metadata4312">
    <rdf:RDF>
      <cc:Work
         rdf:about="">
        <dc:format>image/svg+xml</dc:format>
        <dc:type
           rdf:resource="http://purl.org/dc/dcmitype/StillImage" />
        <dc:title />
      </cc:Work>
    </rdf:RDF>
  </metadata>
  <defs
     id="defs4310" />
  <sodipodi:namedview
     pagecolor="#ffffff"
     bordercolor="#666666"
     borderopacity="1"
     objecttolerance="10"
     gridtolerance="10"
     guidetolerance="10"
     inkscape:pageopacity="0"
     inkscape:pageshadow="2"
     inkscape:window-width="1920"
     inkscape:window-height="1039"
     id="namedview4308"
     showgrid="true"
     inkscape:zoom="12.94"
     inkscape:cx="13.495889"
     inkscape:cy="29.253238"
     inkscape:window-x="0"
     inkscape:window-y="0"
     inkscape:window-maximized="1"
     inkscape:current-layer="layer1"
     units="px"
     fit-margin-top="0"
     fit-margin-left="0"
     fit-margin-right="0"
     fit-margin-bottom="0"
     showguides="false">
    <inkscape:grid
       type="xygrid"
       id="grid5378" />
  </sodipodi:namedview>
  <g
     inkscape:groupmode="layer"
     id="layer1"
     inkscape:label="Layer 1"
     style="display:inline"
     transform="translate(-0.19725811,-435.24496)">
    <path
       style="display:inline;fill:#000000;fill-opacity:1"
       id="path4327"
       sodipodi:type="arc"
       sodipodi:cx="23.913233"
       sodipodi:cy="458.74496"
       sodipodi:rx="23.42272"
       sodipodi:ry="23.5"
       sodipodi:start="6.0304951"
       sodipodi:end="5.9665826"
       d="M 46.592126,452.86974 A 23.42272,23.5 0 0 1 30.130742,481.40191 23.42272,23.5 0 0 1 1.4330198,465.34419 23.42272,23.5 0 0 1 16.977371,436.2989 a 23.42272,23.5 0 0 1 29.19444,15.12958"
       sodipodi:open="true" />
  </g>
  <path
     id="path1"
     style="fill:#ffffff"
     d="M 8.0595247,40.66083 C 7.2423258,40.453478 6.0597729,39.363022 4.7484478,37.607673 2.0865654,34.044431 0.6411973,30.047801 0.2155641,25.073641 0.13362082,24.116267 0.13447439,21.694138 0.21664334,20.807784 0.60585925,16.628659 1.9817816,13.029668 4.5064236,9.5870056 5.2795407,8.5327656 6.5608426,7.1516855 7.1745303,6.7111269 8.0428398,6.0877928 8.5893893,6.0373856 9.113898,6.5322207 9.3278257,6.7340576 9.3770103,6.8279595 9.4044071,7.0866912 9.456073,7.5738304 9.2210532,7.9544938 8.1284829,9.1538631 6.6017062,10.829933 5.8973364,11.762952 5.1171258,13.14276 3.3454023,16.276076 2.5872542,19.571222 2.6959331,23.66599 c 0.057797,2.181546 0.2775309,3.789563 0.7618754,5.578074 0.43624,1.610832 0.9598383,2.909625 1.743944,4.325902 0.7872826,1.422049 1.4488617,2.321745 2.7717897,3.769531 1.1606395,1.270138 1.4489255,1.711286 1.4489255,2.217205 0,0.503259 -0.334231,0.958403 -0.8060407,1.097686 -0.2606349,0.07695 -0.278356,0.07716 -0.5572418,0.0058 z m 30.6368983,0.01811 c -0.247,-0.05561 -0.688703,-0.560619 -0.7385,-0.844152 -0.08025,-0.456879 0.175521,-0.863812 1.367685,-2.176243 0.586694,-0.645841 1.308552,-1.494792 1.604163,-1.886554 2.162845,-2.866348 3.364474,-6.055739 3.68507,-9.780971 0.09888,-1.148371 0.04785,-4.107276 -0.08999,-5.216806 -0.288689,-2.324102 -0.82154,-4.225445 -1.74441,-6.224738 -0.883108,-1.913077 -1.796748,-3.269953 -3.339786,-4.9599837 -1.036188,-1.1349 -1.341665,-1.549327 -1.445813,-1.9615389 -0.102053,-0.4040764 -0.0288,-0.7041091 0.256442,-1.0484065 0.391121,-0.4722496 0.837906,-0.5143778 1.537088,-0.1448555 0.846333,0.4471901 1.943136,1.6150256 3.216287,3.4245871 2.56146,3.6406945 3.882546,7.6458695 4.200071,12.7334965 0.269761,4.322714 -0.716882,8.698376 -2.778457,12.322102 -1.423052,2.501364 -3.594134,5.064494 -4.7502,5.608032 -0.302153,0.142036 -0.735705,0.211143 -0.979571,0.15614 z m -25.567692,-2.63586 c -0.692025,-0.222947 -1.093203,-0.958057 -0.926322,-1.697381 0.103111,-0.457182 0.535011,-0.927239 0.955118,-1.039661 0.423198,-0.113229 22.315219,-0.113229 22.738417,0 0.433022,0.115846 0.858464,0.587434 0.953105,1.056382 0.124072,0.614588 -0.135928,1.243671 -0.640766,1.551032 l -0.266902,0.162392 -11.320057,0.01208 c -6.226015,0.0058 -11.397696,-0.0141 -11.492593,-0.04409 z m 8.623176,-5.655934 c -2.102311,-0.812707 -3.851421,-2.396523 -4.746789,-4.298216 -0.49779,-1.057232 -0.78671,-2.337693 -0.786501,-3.485395 3.84e-4,-1.551665 0.571195,-3.03023 2.310439,-5.983905 1.295425,-2.199957 1.516149,-2.600848 1.897044,-3.445799 0.506874,-1.124398 0.674008,-1.792221 0.684617,-2.735697 0.0106,-0.901654 -0.117084,-1.436602 -0.507719,-2.136295 C 20.325637,9.8051537 19.701637,9.0575069 19.448224,8.9182321 19.03521,8.6912282 18.949609,8.3828808 19.242849,8.1786488 c 0.46385,-0.323021 1.731177,-0.1182711 2.895522,0.4680346 1.317444,0.6633118 2.288462,1.6157306 2.920781,2.8648566 0.487351,0.962763 0.683854,1.700535 1.014401,3.808763 0.366793,2.339484 0.730412,3.081729 1.465715,2.991906 0.38962,-0.04754 0.632786,-0.204735 0.796852,-0.515005 0.261375,-0.494231 0.149267,-1.170755 -0.379244,-2.290255 -0.431878,-0.914685 -0.405139,-1.191089 0.101417,-1.048709 0.262372,0.07374 1.113743,0.812865 1.703188,1.478608 1.474799,1.665699 2.208789,3.17904 2.561758,5.281808 0.185048,1.102942 0.200505,2.931789 0.03282,3.887573 -0.211726,1.205793 -0.640682,2.343937 -1.250411,3.317273 -0.679851,1.085291 -2.098141,2.458444 -3.129245,3.029681 -0.46565,0.257948 -0.627282,0.273578 -0.855523,0.0828 -0.283882,-0.237356 -0.223921,-0.402358 0.403636,-1.110877 0.942899,-1.064503 1.4243,-1.821256 1.70359,-2.678019 0.430923,-1.321861 0.216423,-3.164727 -0.505032,-4.339352 -0.29883,-0.486521 -0.736828,-0.915533 -0.934685,-0.915533 -0.108403,0 -0.09041,0.151911 0.110521,0.933846 0.0703,0.274003 0.127883,0.608848 0.127883,0.744137 0,0.71551 -0.950249,1.234205 -1.787264,0.975572 -0.680234,-0.21018 -0.980079,-0.86583 -0.889969,-1.946066 0.02795,-0.333817 0.05272,-0.940436 0.05525,-1.348016 0.0042,-0.718646 -0.0022,-0.755012 -0.215983,-1.203676 -0.417226,-0.87447 -1.382167,-1.775252 -1.901721,-1.775252 -0.22405,0 -0.242469,0.0141 -0.242469,0.189386 0,0.117458 0.06226,0.25105 0.163876,0.351892 0.538228,0.533942 0.639518,1.628038 0.24018,2.593937 -0.246829,0.596987 -0.525164,0.935098 -1.475709,1.792679 -1.250685,1.128349 -1.653705,1.665634 -1.903627,2.537854 -0.115601,0.403466 -0.127459,0.56767 -0.09508,1.30703 0.05462,1.241274 0.29267,2.064087 0.84898,2.934773 0.427136,0.668506 0.927275,1.092629 1.606511,1.362378 0.326672,0.129753 0.362622,0.163192 0.362622,0.33789 0,0.202498 -0.144818,0.335595 -0.358471,0.329349 -0.0631,-0.0013 -0.369927,-0.102153 -0.682076,-0.222766 z"
     inkscape:connector-curvature="0" />
</svg>
