<?xml version="1.0" encoding="UTF-8" standalone="no"?>
<!-- Generator: Adobe Illustrator 19.1.0, SVG Export Plug-In . SVG Version: 6.00 Build 0)  -->

<svg
   xmlns:dc="http://purl.org/dc/elements/1.1/"
   xmlns:cc="http://creativecommons.org/ns#"
   xmlns:rdf="http://www.w3.org/1999/02/22-rdf-syntax-ns#"
   xmlns:svg="http://www.w3.org/2000/svg"
   xmlns="http://www.w3.org/2000/svg"
   xmlns:sodipodi="http://sodipodi.sourceforge.net/DTD/sodipodi-0.dtd"
   xmlns:inkscape="http://www.inkscape.org/namespaces/inkscape"
   version="1.1"
   id="Layer_1"
   x="0px"
   y="0px"
   viewBox="0 0 64 64"
   style="enable-background:new 0 0 64 64;"
   xml:space="preserve"
   inkscape:version="0.91 r13725"
   sodipodi:docname="gps.svg"><metadata
     id="metadata4732"><rdf:RDF><cc:Work
         rdf:about=""><dc:format>image/svg+xml</dc:format><dc:type
           rdf:resource="http://purl.org/dc/dcmitype/StillImage" /></cc:Work></rdf:RDF></metadata><defs
     id="defs4730" /><sodipodi:namedview
     pagecolor="#ffffff"
     bordercolor="#666666"
     borderopacity="1"
     objecttolerance="10"
     gridtolerance="10"
     guidetolerance="10"
     inkscape:pageopacity="0"
     inkscape:pageshadow="2"
     inkscape:window-width="1920"
     inkscape:window-height="1003"
     id="namedview4728"
     showgrid="false"
     inkscape:zoom="12.359375"
     inkscape:cx="32"
     inkscape:cy="32"
     inkscape:window-x="0"
     inkscape:window-y="0"
     inkscape:window-maximized="1"
     inkscape:current-layer="Layer_1" /><style
     type="text/css"
     id="style4714">
	.st0{display:none;fill:#2B3544;}
	.st1{fill:#C75C5C;}
	.st2{opacity:0.2;}
	.st3{fill:#231F20;}
	.st4{fill:#FFFFFF;stroke:#FFFFFF;stroke-width:3;stroke-linecap:round;stroke-linejoin:round;stroke-miterlimit:10;}
</style><rect
     x="-307"
     y="-1765"
     class="st0"
     width="608"
     height="1984"
     id="rect4716" /><circle
     class="st1"
     cx="32"
     cy="32"
     r="32"
     id="circle4718"
     style="fill:#c75c5c;fill-opacity:0" /><g
     class="st2"
     id="g4720"><polygon
       class="st3"
       points="32,16.8 17.6,49.2 32,42 46.4,49.2  "
       id="polygon4722" /><path
       class="st3"
       d="M46.4,50.5c-0.2,0-0.4,0-0.6-0.1L32,43.5l-13.8,6.9c-0.5,0.3-1.1,0.2-1.5-0.2c-0.4-0.4-0.5-1-0.3-1.5   l14.4-32.3c0.2-0.5,0.7-0.8,1.2-0.8c0.5,0,1,0.3,1.2,0.8l14.4,32.3c0.2,0.5,0.1,1.1-0.3,1.5C47,50.4,46.7,50.5,46.4,50.5z M32,40.6   c0.2,0,0.4,0,0.6,0.1l11,5.5L32,20.2L20.4,46.3l11-5.5C31.6,40.7,31.8,40.6,32,40.6z"
       id="path4724" /></g><polygon
     class="st4"
     points="32,15 17.9,46.7 32,39.6 46.1,46.7 "
     id="polygon4726"
     style="fill:#000000;stroke:#000000;stroke-opacity:1" /></svg>