<?xml version="1.0" encoding="UTF-8" standalone="no"?>
<svg
   xmlns:dc="http://purl.org/dc/elements/1.1/"
   xmlns:cc="http://creativecommons.org/ns#"
   xmlns:rdf="http://www.w3.org/1999/02/22-rdf-syntax-ns#"
   xmlns:svg="http://www.w3.org/2000/svg"
   xmlns="http://www.w3.org/2000/svg"
   xmlns:sodipodi="http://sodipodi.sourceforge.net/DTD/sodipodi-0.dtd"
   xmlns:inkscape="http://www.inkscape.org/namespaces/inkscape"
   enable-background="new 0 0 48 48"
   id="Layer_1"
   version="1.1"
   viewBox="0 0 47.362251 47.41959"
   xml:space="preserve"
   inkscape:version="0.91 r13725"
   sodipodi:docname="in.svg"
   width="47.362251"
   height="47.41959"><metadata
     id="metadata3382"><rdf:RDF><cc:Work
         rdf:about=""><dc:format>image/svg+xml</dc:format><dc:type
           rdf:resource="http://purl.org/dc/dcmitype/StillImage" /><dc:title></dc:title></cc:Work></rdf:RDF></metadata><defs
     id="defs3380" /><sodipodi:namedview
     pagecolor="#ffffff"
     bordercolor="#666666"
     borderopacity="1"
     objecttolerance="10"
     gridtolerance="10"
     guidetolerance="10"
     inkscape:pageopacity="0"
     inkscape:pageshadow="2"
     inkscape:window-width="1920"
     inkscape:window-height="1039"
     id="namedview3378"
     showgrid="true"
     inkscape:zoom="17.229167"
     inkscape:cx="9.548468"
     inkscape:cy="23.767836"
     inkscape:window-x="0"
     inkscape:window-y="0"
     inkscape:window-maximized="1"
     inkscape:current-layer="Layer_1"
     showguides="false"
     fit-margin-top="0"
     fit-margin-left="0"
     fit-margin-right="0"
     fit-margin-bottom="0"><inkscape:grid
       type="xygrid"
       id="grid4178"
       originx="-0.34754181"
       originy="-0.23216438" /></sodipodi:namedview><ellipse
     cx="23.681126"
     cy="23.709795"
     id="circle3374"
     style="fill:#000000"
     rx="23.681126"
     ry="23.709795" /><path
     d="m 16.360277,35.594559 -5.800077,0 0,-18.150721 5.800077,0 0,18.150721 z m -3.152216,-20.480881 0,0 c -2.143507,0 -3.5304818,-1.34904 -3.5304818,-3.18864 0,-1.839601 1.3869748,-3.1886406 3.5304818,-3.1886406 2.143508,0 3.530482,1.3490396 3.530482,3.1886406 0,1.8396 -1.260885,3.18864 -3.530482,3.18864 z m 26.478617,20.480881 -6.682699,0 0,-9.44328 c 0,-2.4528 -1.008708,-4.169761 -3.278304,-4.169761 -1.765242,0 -2.647861,1.10376 -3.152217,2.207521 -0.126089,0.367919 -0.126089,0.98112 -0.126089,1.471679 l 0,9.811201 -6.556609,0 c 0,0 0.126089,-16.679041 0,-18.150721 l 6.556609,0 0,2.82072 c 0.378267,-1.2264 2.521774,-3.065999 5.800079,-3.065999 4.160925,0 7.43923,2.575439 7.43923,8.21688 l 0,10.30176 z"
     id="path3376"
     inkscape:connector-curvature="0"
     style="fill:#ffffff" /></svg>